<?xml version="1.0" standalone="no"?>
<!DOCTYPE svg PUBLIC "-//W3C//DTD SVG 20010904//EN"
 "http://www.w3.org/TR/2001/REC-SVG-20010904/DTD/svg10.dtd">
<svg version="1.0" xmlns="http://www.w3.org/2000/svg"
 width="4096.000000pt" height="4096.000000pt" viewBox="0 0 4096.000000 4096.000000"
 preserveAspectRatio="xMidYMid meet">
<metadata>
Created by potrace 1.14, written by Peter Selinger 2001-2017
</metadata>
<g transform="translate(0.000000,4096.000000) scale(0.100000,-0.100000)"
fill="#000000" stroke="none">
<path d="M20257 37544 c-1 -1 -78 -5 -172 -8 -93 -4 -188 -8 -210 -10 -22 -2
-76 -7 -120 -10 -137 -12 -215 -20 -339 -36 -204 -27 -212 -28 -321 -46 -49
-8 -103 -17 -120 -20 -395 -63 -1101 -256 -1465 -399 -19 -8 -89 -35 -155 -60
-369 -143 -830 -366 -1145 -553 -41 -25 -88 -52 -105 -62 -161 -92 -493 -314
-691 -460 -123 -91 -321 -245 -334 -259 -3 -4 -27 -24 -55 -46 -276 -222 -741
-677 -985 -964 -30 -36 -62 -72 -70 -81 -8 -10 -24 -28 -35 -41 -11 -13 -40
-49 -65 -79 -52 -63 -247 -313 -270 -346 -8 -12 -56 -80 -105 -151 -135 -191
-299 -444 -370 -571 -5 -9 -31 -53 -56 -97 -80 -139 -100 -176 -203 -380 -199
-392 -344 -739 -480 -1146 -67 -201 -171 -554 -182 -619 -3 -14 -9 -38 -14
-55 -10 -32 -75 -330 -84 -380 -2 -16 -9 -55 -16 -85 -6 -30 -13 -71 -16 -90
-3 -19 -9 -57 -14 -85 -5 -27 -16 -102 -25 -165 -21 -148 -23 -164 -30 -231
-3 -31 -7 -65 -9 -75 -2 -11 -7 -57 -11 -104 -4 -47 -8 -98 -10 -113 -2 -15
-7 -85 -10 -155 -4 -70 -9 -152 -11 -182 -4 -81 -4 -631 0 -730 5 -108 15
-258 21 -332 9 -100 16 -182 20 -213 2 -16 6 -55 10 -85 15 -132 48 -361 65
-459 11 -58 21 -119 24 -136 48 -276 181 -790 282 -1090 56 -169 164 -463 197
-537 8 -18 38 -89 67 -158 54 -128 292 -618 353 -725 19 -33 45 -80 59 -105
171 -301 486 -780 630 -955 5 -5 56 -71 114 -145 213 -270 378 -454 659 -735
316 -316 558 -526 900 -782 99 -74 187 -140 195 -146 46 -36 350 -237 359
-237 6 0 11 -4 11 -10 0 -5 4 -10 9 -10 5 0 51 -26 102 -59 52 -32 110 -68
129 -79 19 -10 49 -28 67 -38 l31 -18 -161 -49 c-505 -150 -1225 -408 -1544
-553 -28 -13 -55 -24 -58 -24 -3 0 -25 -8 -48 -19 -23 -10 -80 -35 -127 -56
-271 -121 -367 -166 -660 -312 -286 -143 -431 -218 -580 -302 -52 -30 -111
-63 -130 -73 -19 -11 -101 -59 -183 -106 -81 -48 -155 -91 -165 -97 -28 -16
-208 -127 -255 -157 -23 -15 -49 -31 -57 -35 -19 -10 -95 -60 -300 -196 -248
-165 -433 -296 -734 -520 -54 -40 -411 -320 -416 -326 -3 -3 -37 -32 -76 -63
-39 -31 -77 -62 -85 -70 -8 -7 -35 -30 -61 -51 -26 -21 -53 -43 -60 -50 -7 -7
-42 -37 -78 -67 -80 -68 -293 -258 -386 -344 -305 -284 -622 -600 -859 -857
-141 -152 -166 -180 -270 -299 -110 -125 -169 -193 -242 -281 -21 -25 -58 -70
-83 -99 -25 -29 -49 -60 -54 -69 -5 -9 -12 -18 -15 -21 -9 -8 -63 -72 -96
-114 -16 -22 -48 -62 -71 -90 -195 -244 -559 -751 -763 -1066 -62 -96 -124
-191 -136 -210 -35 -53 -180 -291 -250 -410 -53 -90 -107 -184 -220 -385 -22
-39 -64 -117 -148 -275 -59 -112 -219 -432 -267 -535 -23 -49 -59 -126 -80
-170 -21 -44 -64 -138 -95 -210 -31 -71 -65 -149 -76 -172 -10 -24 -19 -45
-19 -49 0 -3 -11 -29 -24 -57 -43 -93 -189 -466 -268 -682 -76 -212 -257 -750
-263 -785 -1 -6 -42 -146 -54 -185 -9 -28 -55 -196 -116 -420 -14 -49 -36
-139 -51 -200 -14 -60 -28 -117 -30 -125 -7 -28 -92 -410 -98 -442 -2 -13 -20
-104 -39 -203 -20 -99 -38 -198 -42 -220 -3 -22 -15 -94 -26 -160 -11 -66 -22
-133 -25 -150 -2 -16 -6 -41 -9 -55 -2 -14 -7 -45 -10 -70 -4 -25 -8 -58 -11
-75 -7 -46 -12 -89 -29 -225 -9 -69 -18 -136 -21 -150 -6 -28 -5 -249 1 -320
2 -25 7 -81 10 -125 4 -44 9 -89 11 -100 2 -10 6 -37 9 -60 6 -39 29 -172 40
-230 3 -16 12 -54 20 -84 10 -39 11 -68 5 -105 -5 -28 -12 -69 -15 -91 -3 -22
-10 -67 -15 -100 -5 -33 -12 -82 -15 -110 -3 -27 -8 -61 -10 -75 -3 -14 -7
-47 -10 -75 -3 -27 -8 -61 -10 -75 -3 -14 -7 -51 -10 -83 -4 -32 -9 -68 -11
-80 -6 -26 -5 -264 1 -322 2 -22 6 -69 9 -105 7 -76 23 -194 36 -265 5 -27 12
-66 15 -85 20 -123 139 -526 184 -625 5 -11 33 -72 61 -135 213 -476 556 -922
950 -1234 47 -37 92 -73 100 -79 8 -7 56 -39 105 -72 50 -33 92 -63 93 -67 2
-5 8 -8 13 -8 5 0 38 -18 74 -40 142 -87 423 -216 597 -274 78 -27 252 -76
283 -82 16 -2 56 -11 87 -19 31 -8 76 -17 100 -20 24 -3 52 -8 63 -10 11 -1
45 -6 75 -10 30 -4 66 -9 80 -11 14 -2 70 -7 125 -11 132 -10 24259 -10 24395
0 58 4 152 15 210 23 133 20 152 23 170 27 8 2 33 7 55 11 141 27 359 93 525
158 521 205 988 553 1346 1003 74 92 240 334 251 363 4 10 10 19 14 22 9 6
138 252 139 265 1 6 7 20 15 32 19 29 135 318 135 336 0 7 3 17 8 21 4 4 7 11
8 14 0 4 11 41 23 82 13 41 30 100 37 130 8 30 16 62 18 70 10 35 36 163 46
221 5 35 12 74 15 87 2 13 7 53 11 90 3 36 7 73 9 82 14 72 22 378 12 445 -4
22 -14 96 -22 165 -9 69 -18 136 -20 150 -2 14 -7 48 -10 75 -3 28 -10 75 -15
105 -5 30 -12 75 -15 100 -4 25 -10 63 -14 85 -8 49 -9 44 12 135 17 78 19 88
41 210 37 201 60 562 43 675 -4 22 -9 58 -11 80 -3 22 -10 78 -16 125 -6 47
-13 101 -16 120 -3 19 -7 51 -10 70 -6 42 -24 165 -30 200 -9 60 -39 235 -49
295 -13 78 -49 262 -71 370 -14 66 -27 131 -30 145 -50 272 -218 918 -345
1330 -98 314 -250 761 -289 845 -5 11 -24 63 -44 116 -86 236 -267 666 -414
984 -183 396 -548 1086 -735 1389 -7 11 -31 51 -54 88 -24 38 -43 70 -43 72 0
2 -15 27 -32 55 -18 27 -49 76 -68 108 -58 95 -456 690 -471 703 -3 3 -21 28
-39 55 -19 28 -38 55 -42 60 -4 6 -78 105 -164 220 -135 180 -298 390 -363
468 -11 12 -58 69 -106 127 -81 99 -157 189 -180 214 -5 6 -57 65 -115 131
-58 66 -109 125 -115 131 -5 6 -48 53 -95 104 -312 341 -717 742 -1094 1080
-28 25 -55 50 -62 55 -24 22 -134 117 -214 184 -47 40 -96 83 -110 95 -19 17
-398 322 -465 374 -5 4 -86 65 -180 134 -93 70 -181 135 -195 146 -102 77
-647 446 -765 519 -11 7 -83 52 -160 100 -77 48 -144 90 -150 93 -5 3 -36 21
-68 40 -32 19 -66 40 -75 45 -58 34 -420 239 -482 272 -249 133 -553 288 -700
356 -41 19 -113 52 -160 74 -47 22 -101 47 -120 56 -19 8 -64 28 -100 45 -36
16 -121 53 -190 82 -69 28 -143 60 -165 70 -36 16 -167 68 -335 133 -57 22
-201 76 -410 152 -146 53 -715 238 -775 251 -11 2 -39 10 -62 17 l-41 12 151
90 c202 120 601 387 707 472 8 7 51 39 95 72 44 33 85 64 90 68 6 5 33 26 60
48 28 22 52 42 55 45 3 3 17 15 32 26 194 149 683 613 904 859 148 165 337
391 439 525 27 36 52 67 55 70 13 10 278 389 347 495 73 113 273 442 273 450
0 2 14 28 31 57 18 29 68 123 112 208 43 85 85 166 93 180 13 24 90 190 119
255 139 314 217 517 321 825 65 195 198 674 219 792 3 14 16 79 30 144 14 64
27 129 29 143 3 14 13 78 25 141 11 63 25 149 31 190 6 41 12 86 14 100 7 46
16 114 21 175 4 33 8 71 10 85 2 14 7 61 11 105 3 44 8 94 9 110 3 31 15 226
21 330 4 79 3 663 -1 740 -11 193 -16 274 -20 310 -2 22 -7 76 -10 120 -4 44
-8 91 -11 105 -2 14 -6 54 -10 90 -3 36 -8 76 -11 90 -3 14 -7 43 -9 65 -4 34
-44 290 -59 380 -3 17 -17 85 -31 151 -14 67 -27 134 -30 150 -3 16 -7 37 -10
46 -3 9 -6 25 -8 35 -6 26 -64 256 -88 343 -11 41 -24 89 -28 105 -49 187
-241 732 -324 920 -8 17 -37 84 -66 150 -117 268 -318 657 -476 921 -92 153
-108 179 -193 309 -221 338 -572 796 -776 1011 -11 12 -50 55 -87 96 -159 177
-527 534 -708 686 -14 11 -38 33 -55 47 -255 222 -699 546 -1025 746 -310 191
-741 419 -1015 538 -55 24 -118 52 -140 62 -169 76 -586 227 -850 308 -339
104 -799 211 -1100 256 -22 3 -56 8 -75 11 -19 3 -62 9 -95 14 -33 5 -80 12
-105 15 -25 3 -61 7 -80 10 -19 2 -57 7 -85 9 -27 3 -74 8 -102 11 -129 13
-153 15 -228 20 -234 15 -323 18 -568 20 -147 1 -268 1 -270 -1z"/>
</g>
</svg>
